<svg width="19" height="19" viewBox="0 0 19 19" fill="none" xmlns="http://www.w3.org/2000/svg">
<path d="M18 14H4C3.45 14 2.97934 13.8043 2.588 13.413C2.19667 13.0217 2.00067 12.5507 2 12V2H1C0.71667 2 0.479337 1.904 0.288004 1.712C0.0966702 1.52 0.000670115 1.28267 3.44827e-06 1C-0.000663218 0.717333 0.0953369 0.48 0.288004 0.288C0.48067 0.0960001 0.718003 0 1 0H2C2.55 0 3.021 0.196 3.413 0.588C3.805 0.98 4.00067 1.45067 4 2V12H18C18.2833 12 18.521 12.096 18.713 12.288C18.905 12.48 19.0007 12.7173 19 13C18.9993 13.2827 18.9033 13.5203 18.712 13.713C18.5207 13.9057 18.2833 14.0013 18 14ZM4 19C3.45 19 2.97934 18.8043 2.588 18.413C2.19667 18.0217 2.00067 17.5507 2 17C1.99934 16.4493 2.19534 15.9787 2.588 15.588C2.98067 15.1973 3.45134 15.0013 4 15C4.54867 14.9987 5.01967 15.1947 5.413 15.588C5.80634 15.9813 6.002 16.452 6 17C5.998 17.548 5.80234 18.019 5.413 18.413C5.02367 18.807 4.55267 19.0027 4 19ZM6 11C5.71667 11 5.47934 10.904 5.288 10.712C5.09667 10.52 5.00067 10.2827 5 10V6C5 5.71667 5.096 5.47933 5.288 5.288C5.48 5.09667 5.71734 5.00067 6 5H10C10.2833 5 10.521 5.096 10.713 5.288C10.905 5.48 11.0007 5.71733 11 6V10C11 10.2833 10.904 10.521 10.712 10.713C10.52 10.905 10.2827 11.0007 10 11H6ZM13 11C12.7167 11 12.4793 10.904 12.288 10.712C12.0967 10.52 12.0007 10.2827 12 10V6C12 5.71667 12.096 5.47933 12.288 5.288C12.48 5.09667 12.7173 5.00067 13 5H17C17.2833 5 17.521 5.096 17.713 5.288C17.905 5.48 18.0007 5.71733 18 6V10C18 10.2833 17.904 10.521 17.712 10.713C17.52 10.905 17.2827 11.0007 17 11H13ZM17 19C16.45 19 15.9793 18.8043 15.588 18.413C15.1967 18.0217 15.0007 17.5507 15 17C14.9993 16.4493 15.1953 15.9787 15.588 15.588C15.9807 15.1973 16.4513 15.0013 17 15C17.5487 14.9987 18.0197 15.1947 18.413 15.588C18.8063 15.9813 19.002 16.452 19 17C18.998 17.548 18.8023 18.019 18.413 18.413C18.0237 18.807 17.5527 19.0027 17 19Z" fill="black"/>
</svg>
