<svg width="220" height="33" viewBox="0 0 220 33" fill="none" xmlns="http://www.w3.org/2000/svg">
<path d="M0.94675 25V20.456H5.49075V25H0.94675ZM8.38575 25V1.992H26.7858C27.6391 1.992 28.4071 2.20533 29.0898 2.632C29.7938 3.03733 30.3591 3.592 30.7858 4.296C31.2124 5 31.4258 5.768 31.4258 6.6V12.68C31.4258 13.512 31.2124 14.28 30.7858 14.984C30.3591 15.6667 29.7938 16.2213 29.0898 16.648C28.4071 17.0533 27.6391 17.256 26.7858 17.256L12.9938 17.288V25H8.38575ZM13.1858 12.616H26.5618C26.6258 12.616 26.6684 12.6053 26.6898 12.584C26.7324 12.5413 26.7538 12.4987 26.7538 12.456V6.792C26.7538 6.728 26.7324 6.68533 26.6898 6.664C26.6684 6.62133 26.6258 6.6 26.5618 6.6H13.1858C13.1218 6.6 13.0684 6.62133 13.0258 6.664C13.0044 6.68533 12.9938 6.728 12.9938 6.792V12.456C12.9938 12.4987 13.0044 12.5413 13.0258 12.584C13.0684 12.6053 13.1218 12.616 13.1858 12.616ZM33.5703 25V6.44H38.1143V25H33.5703ZM33.5703 4.936V0.359999H38.1143V4.936H33.5703ZM45.5503 25C44.7396 25 43.9929 24.7973 43.3103 24.392C42.6276 23.9653 42.0729 23.4107 41.6463 22.728C41.2409 22.0453 41.0383 21.2987 41.0383 20.488V10.952C41.0383 10.1413 41.2409 9.39467 41.6463 8.712C42.0729 8.02933 42.6276 7.48533 43.3103 7.08C43.9929 6.65333 44.7396 6.44 45.5503 6.44H55.3423C56.1743 6.44 56.9316 6.65333 57.6143 7.08C58.2969 7.48533 58.8409 8.02933 59.2463 8.712C59.6516 9.39467 59.8543 10.1413 59.8543 10.952V18.024H45.5823V20.264C45.5823 20.3067 45.6036 20.3493 45.6463 20.392C45.6889 20.4347 45.7316 20.456 45.7743 20.456H59.8543V25H45.5503ZM45.5823 13.96H55.3103V11.176C55.3103 11.1333 55.2889 11.0907 55.2463 11.048C55.2036 11.0053 55.1609 10.984 55.1183 10.984H45.7743C45.7316 10.984 45.6889 11.0053 45.6463 11.048C45.6036 11.0907 45.5823 11.1333 45.5823 11.176V13.96ZM62.4095 25V23.624L69.0015 15.56L62.4095 7.816V6.44H67.2095L71.9775 12.072L76.7135 6.44H81.5135V7.816L74.9215 15.56L81.5135 23.624V25H76.7455L71.9775 19.144L67.2095 25H62.4095ZM84.8218 32.36V6.44H99.1258C99.9578 6.44 100.715 6.65333 101.398 7.08C102.08 7.48533 102.624 8.02933 103.03 8.712C103.435 9.39467 103.638 10.1413 103.638 10.952V20.488C103.638 21.2987 103.435 22.0453 103.03 22.728C102.624 23.4107 102.08 23.9653 101.398 24.392C100.715 24.7973 99.9578 25 99.1258 25H89.3658V32.36H84.8218ZM89.5578 20.456H98.9018C98.9658 20.456 99.0084 20.4347 99.0298 20.392C99.0724 20.3493 99.0938 20.3067 99.0938 20.264V11.176C99.0938 11.1333 99.0724 11.0907 99.0298 11.048C99.0084 11.0053 98.9658 10.984 98.9018 10.984H89.5578C89.5151 10.984 89.4724 11.0053 89.4298 11.048C89.3871 11.0907 89.3658 11.1333 89.3658 11.176V20.264C89.3658 20.3067 89.3871 20.3493 89.4298 20.392C89.4724 20.4347 89.5151 20.456 89.5578 20.456ZM108.664 32.328V27.752H119.768C119.81 27.752 119.853 27.7307 119.896 27.688C119.938 27.6453 119.96 27.6027 119.96 27.56V25H110.2C109.368 25 108.61 24.7973 107.928 24.392C107.245 23.9653 106.69 23.4107 106.264 22.728C105.858 22.0453 105.656 21.2987 105.656 20.488V10.952C105.656 10.1413 105.858 9.39467 106.264 8.712C106.69 8.02933 107.245 7.48533 107.928 7.08C108.632 6.65333 109.389 6.44 110.2 6.44H119.992C120.824 6.44 121.581 6.65333 122.264 7.08C122.946 7.48533 123.49 8.02933 123.896 8.712C124.301 9.39467 124.504 10.1413 124.504 10.952V27.784C124.504 28.6373 124.301 29.4053 123.896 30.088C123.512 30.7707 122.968 31.3147 122.264 31.72C121.581 32.1253 120.824 32.328 119.992 32.328H108.664ZM110.392 20.456H119.768C119.81 20.456 119.853 20.4347 119.896 20.392C119.938 20.3493 119.96 20.3067 119.96 20.264V11.176C119.96 11.1333 119.938 11.0907 119.896 11.048C119.853 11.0053 119.81 10.984 119.768 10.984H110.392C110.349 10.984 110.306 11.0053 110.264 11.048C110.221 11.0907 110.2 11.1333 110.2 11.176V20.264C110.2 20.3067 110.221 20.3493 110.264 20.392C110.306 20.4347 110.349 20.456 110.392 20.456ZM131.614 25C130.803 25 130.046 24.7973 129.342 24.392C128.659 23.9653 128.115 23.4107 127.71 22.728C127.304 22.0453 127.102 21.2987 127.102 20.488V13.416H141.374V11.176C141.374 11.1333 141.352 11.0907 141.31 11.048C141.267 11.0053 141.224 10.984 141.182 10.984H127.102V6.44H141.406C142.238 6.44 142.995 6.65333 143.678 7.08C144.36 7.48533 144.904 8.02933 145.31 8.712C145.715 9.39467 145.918 10.1413 145.918 10.952V25H131.614ZM131.838 20.456H141.374V17.48H131.646V20.264C131.646 20.3067 131.667 20.3493 131.71 20.392C131.752 20.4347 131.795 20.456 131.838 20.456ZM148.509 25V6.44H171.165C172.019 6.44 172.787 6.65333 173.469 7.08C174.152 7.48533 174.696 8.02933 175.101 8.712C175.507 9.39467 175.709 10.1413 175.709 10.952V25H171.165V11.176C171.165 11.1333 171.144 11.0907 171.101 11.048C171.08 11.0053 171.037 10.984 170.973 10.984H164.605C164.541 10.984 164.488 11.0053 164.445 11.048C164.424 11.0907 164.413 11.1333 164.413 11.176V25H159.837V11.176C159.837 11.1333 159.816 11.0907 159.773 11.048C159.731 11.0053 159.688 10.984 159.645 10.984H153.245C153.203 10.984 153.16 11.0053 153.117 11.048C153.096 11.0907 153.085 11.1333 153.085 11.176V25H148.509ZM183.113 25C182.302 25 181.555 24.7973 180.873 24.392C180.19 23.9653 179.635 23.4107 179.209 22.728C178.803 22.0453 178.601 21.2987 178.601 20.488V10.952C178.601 10.1413 178.803 9.39467 179.209 8.712C179.635 8.02933 180.19 7.48533 180.873 7.08C181.555 6.65333 182.302 6.44 183.113 6.44H192.905C193.737 6.44 194.494 6.65333 195.177 7.08C195.859 7.48533 196.403 8.02933 196.809 8.712C197.214 9.39467 197.417 10.1413 197.417 10.952V18.024H183.145V20.264C183.145 20.3067 183.166 20.3493 183.209 20.392C183.251 20.4347 183.294 20.456 183.337 20.456H197.417V25H183.113ZM183.145 13.96H192.873V11.176C192.873 11.1333 192.851 11.0907 192.809 11.048C192.766 11.0053 192.723 10.984 192.681 10.984H183.337C183.294 10.984 183.251 11.0053 183.209 11.048C183.166 11.0907 183.145 11.1333 183.145 11.176V13.96ZM204.892 25C204.081 25 203.334 24.7973 202.652 24.392C201.969 23.9653 201.414 23.4107 200.988 22.728C200.582 22.0453 200.38 21.2987 200.38 20.488V19.656H204.924V20.264C204.924 20.3067 204.945 20.3493 204.988 20.392C205.03 20.4347 205.073 20.456 205.116 20.456H214.46C214.502 20.456 214.545 20.4347 214.588 20.392C214.63 20.3493 214.652 20.3067 214.652 20.264V18.184C214.652 18.1413 214.63 18.1093 214.588 18.088C214.545 18.0453 214.502 18.024 214.46 18.024H204.892C204.081 18.024 203.334 17.8213 202.652 17.416C201.969 16.9893 201.414 16.4347 200.988 15.752C200.582 15.0693 200.38 14.312 200.38 13.48V10.952C200.38 10.1413 200.582 9.39467 200.988 8.712C201.414 8.02933 201.969 7.48533 202.652 7.08C203.334 6.65333 204.081 6.44 204.892 6.44H214.684C215.516 6.44 216.273 6.65333 216.956 7.08C217.638 7.48533 218.182 8.02933 218.588 8.712C219.014 9.39467 219.228 10.1413 219.228 10.952V11.784H214.652V11.176C214.652 11.1333 214.63 11.0907 214.588 11.048C214.545 11.0053 214.502 10.984 214.46 10.984H205.116C205.073 10.984 205.03 11.0053 204.988 11.048C204.945 11.0907 204.924 11.1333 204.924 11.176V13.256C204.924 13.2987 204.945 13.3413 204.988 13.384C205.03 13.4053 205.073 13.416 205.116 13.416H214.684C215.516 13.416 216.273 13.6293 216.956 14.056C217.638 14.4613 218.182 15.0053 218.588 15.688C219.014 16.3707 219.228 17.128 219.228 17.96V20.488C219.228 21.2987 219.014 22.0453 218.588 22.728C218.182 23.4107 217.638 23.9653 216.956 24.392C216.273 24.7973 215.516 25 214.684 25H204.892Z" fill="#0F051D"/>
</svg>
