<svg width="241" height="42" viewBox="0 0 241 42" fill="none" xmlns="http://www.w3.org/2000/svg">
<path d="M14.6359 34L1.29188 10.96H6.63588L16.6199 28.272L26.6039 10.96H31.9479L18.6039 34H14.6359ZM38.4736 34C37.663 34 36.9056 33.7973 36.2016 33.392C35.519 32.9653 34.975 32.4107 34.5696 31.728C34.1643 31.0453 33.9616 30.2987 33.9616 29.488V15.44H38.5056V29.264C38.5056 29.3067 38.527 29.3493 38.5696 29.392C38.6123 29.4347 38.655 29.456 38.6976 29.456H48.0416C48.0843 29.456 48.127 29.4347 48.1696 29.392C48.2123 29.3493 48.2336 29.3067 48.2336 29.264V15.44H52.7776V29.488C52.7776 30.2987 52.575 31.0453 52.1696 31.728C51.7643 32.4107 51.2203 32.9653 50.5376 33.392C49.855 33.7973 49.0976 34 48.2656 34H38.4736ZM59.9096 34C59.099 34 58.3523 33.7973 57.6696 33.392C56.987 32.9653 56.4323 32.4107 56.0056 31.728C55.6003 31.0453 55.3976 30.2987 55.3976 29.488V19.952C55.3976 19.1413 55.6003 18.3947 56.0056 17.712C56.4323 17.0293 56.987 16.4853 57.6696 16.08C58.3523 15.6533 59.099 15.44 59.9096 15.44H69.7016C70.5336 15.44 71.291 15.6533 71.9736 16.08C72.6563 16.4853 73.2003 17.0293 73.6056 17.712C74.011 18.3947 74.2136 19.1413 74.2136 19.952V27.024H59.9416V29.264C59.9416 29.3067 59.963 29.3493 60.0056 29.392C60.0483 29.4347 60.091 29.456 60.1336 29.456H74.2136V34H59.9096ZM59.9416 22.96H69.6696V20.176C69.6696 20.1333 69.6483 20.0907 69.6056 20.048C69.563 20.0053 69.5203 19.984 69.4776 19.984H60.1336C60.091 19.984 60.0483 20.0053 60.0056 20.048C59.963 20.0907 59.9416 20.1333 59.9416 20.176V22.96ZM82.3219 34C81.4685 34 80.6899 33.7973 79.9859 33.392C79.3032 32.9653 78.7485 32.4107 78.3219 31.728C77.9165 31.024 77.7139 30.2453 77.7139 29.392V15.568C77.7139 14.7147 77.9165 13.9467 78.3219 13.264C78.7485 12.56 79.3032 12.0053 79.9859 11.6C80.6899 11.1733 81.4685 10.96 82.3219 10.96H96.1139C96.9672 10.96 97.7352 11.1733 98.4179 11.6C99.1219 12.0053 99.6872 12.56 100.114 13.264C100.541 13.9467 100.754 14.7147 100.754 15.568V17.552H96.0819V15.792C96.0819 15.728 96.0605 15.6853 96.0179 15.664C95.9965 15.6213 95.9539 15.6 95.8899 15.6H82.5139C82.4499 15.6 82.3965 15.6213 82.3539 15.664C82.3325 15.6853 82.3219 15.728 82.3219 15.792V29.168C82.3219 29.232 82.3325 29.2853 82.3539 29.328C82.3965 29.3493 82.4499 29.36 82.5139 29.36H95.8899C95.9539 29.36 95.9965 29.3493 96.0179 29.328C96.0605 29.2853 96.0819 29.232 96.0819 29.168V25.392H90.9939V20.752H100.754V29.392C100.754 30.2453 100.541 31.024 100.114 31.728C99.6872 32.4107 99.1219 32.9653 98.4179 33.392C97.7352 33.7973 96.9672 34 96.1139 34H82.3219ZM108.66 34C107.85 34 107.092 33.7973 106.388 33.392C105.706 32.9653 105.162 32.4107 104.756 31.728C104.351 31.0453 104.148 30.2987 104.148 29.488V22.416H118.42V20.176C118.42 20.1333 118.399 20.0907 118.356 20.048C118.314 20.0053 118.271 19.984 118.228 19.984H104.148V15.44H118.452C119.284 15.44 120.042 15.6533 120.724 16.08C121.407 16.4853 121.951 17.0293 122.356 17.712C122.762 18.3947 122.964 19.1413 122.964 19.952V34H108.66ZM108.884 29.456H118.42V26.48H108.692V29.264C108.692 29.3067 108.714 29.3493 108.756 29.392C108.799 29.4347 108.842 29.456 108.884 29.456ZM125.556 34V15.44H148.212C149.065 15.44 149.833 15.6533 150.516 16.08C151.199 16.4853 151.743 17.0293 152.148 17.712C152.553 18.3947 152.756 19.1413 152.756 19.952V34H148.212V20.176C148.212 20.1333 148.191 20.0907 148.148 20.048C148.127 20.0053 148.084 19.984 148.02 19.984H141.652C141.588 19.984 141.535 20.0053 141.492 20.048C141.471 20.0907 141.46 20.1333 141.46 20.176V34H136.884V20.176C136.884 20.1333 136.863 20.0907 136.82 20.048C136.777 20.0053 136.735 19.984 136.692 19.984H130.292C130.249 19.984 130.207 20.0053 130.164 20.048C130.143 20.0907 130.132 20.1333 130.132 20.176V34H125.556ZM160.16 34C159.349 34 158.602 33.7973 157.92 33.392C157.237 32.9653 156.682 32.4107 156.256 31.728C155.85 31.0453 155.648 30.2987 155.648 29.488V19.952C155.648 19.1413 155.85 18.3947 156.256 17.712C156.682 17.0293 157.237 16.4853 157.92 16.08C158.602 15.6533 159.349 15.44 160.16 15.44H169.952C170.784 15.44 171.541 15.6533 172.224 16.08C172.906 16.4853 173.45 17.0293 173.856 17.712C174.261 18.3947 174.464 19.1413 174.464 19.952V27.024H160.192V29.264C160.192 29.3067 160.213 29.3493 160.256 29.392C160.298 29.4347 160.341 29.456 160.384 29.456H174.464V34H160.16ZM160.192 22.96H169.92V20.176C169.92 20.1333 169.898 20.0907 169.856 20.048C169.813 20.0053 169.77 19.984 169.728 19.984H160.384C160.341 19.984 160.298 20.0053 160.256 20.048C160.213 20.0907 160.192 20.1333 160.192 20.176V22.96ZM181.939 34C181.128 34 180.381 33.7973 179.699 33.392C179.016 32.9653 178.461 32.4107 178.035 31.728C177.629 31.0453 177.427 30.2987 177.427 29.488V28.656H181.971V29.264C181.971 29.3067 181.992 29.3493 182.035 29.392C182.077 29.4347 182.12 29.456 182.163 29.456H191.507C191.549 29.456 191.592 29.4347 191.635 29.392C191.677 29.3493 191.699 29.3067 191.699 29.264V27.184C191.699 27.1413 191.677 27.1093 191.635 27.088C191.592 27.0453 191.549 27.024 191.507 27.024H181.939C181.128 27.024 180.381 26.8213 179.699 26.416C179.016 25.9893 178.461 25.4347 178.035 24.752C177.629 24.0693 177.427 23.312 177.427 22.48V19.952C177.427 19.1413 177.629 18.3947 178.035 17.712C178.461 17.0293 179.016 16.4853 179.699 16.08C180.381 15.6533 181.128 15.44 181.939 15.44H191.731C192.563 15.44 193.32 15.6533 194.003 16.08C194.685 16.4853 195.229 17.0293 195.635 17.712C196.061 18.3947 196.275 19.1413 196.275 19.952V20.784H191.699V20.176C191.699 20.1333 191.677 20.0907 191.635 20.048C191.592 20.0053 191.549 19.984 191.507 19.984H182.163C182.12 19.984 182.077 20.0053 182.035 20.048C181.992 20.0907 181.971 20.1333 181.971 20.176V22.256C181.971 22.2987 181.992 22.3413 182.035 22.384C182.077 22.4053 182.12 22.416 182.163 22.416H191.731C192.563 22.416 193.32 22.6293 194.003 23.056C194.685 23.4613 195.229 24.0053 195.635 24.688C196.061 25.3707 196.275 26.128 196.275 26.96V29.488C196.275 30.2987 196.061 31.0453 195.635 31.728C195.229 32.4107 194.685 32.9653 194.003 33.392C193.32 33.7973 192.563 34 191.731 34H181.939Z" fill="#0F051D"/>
<g clip-path="url(#clip0_31_61)">
<path d="M204.538 10.5029C207.784 3.60405 215.136 -4.85747 228.172 3.43506C221.726 3.7919 216.026 6.7401 213.014 11.3898C208.599 18.2059 209.539 30.226 218.185 33.1839C202.268 33.9661 201.201 17.5939 204.538 10.5029ZM211.605 21.9716C211.605 21.9716 212.067 31.3816 219.863 32.9933C227.292 30.5895 227.64 22.4958 227.64 22.4958C223.405 29.3618 216.152 28.9262 211.605 21.9715M221.134 16.0095C219.188 16.8741 216.991 19.2349 216.315 20.5725C216.735 23.7099 219.475 26.055 222.82 24.5086C219.252 25.065 217.981 18.798 221.134 16.0095ZM227.648 21.6535C226.879 17.9347 224.17 16.3148 221.132 17.6809C224.793 17.5444 225.927 23.3798 222.926 26.0731C224.635 25.2589 226.238 23.9263 227.648 21.6535ZM232.001 19.4206C231.674 16.8202 230.3 10.1945 224.064 9.07857C218.095 10.7689 216.5 16.8089 216.295 19.3669C221.072 12.5494 227.465 13.3491 232.001 19.4206ZM225.706 8.89785C235.771 10.8021 238.043 36.078 215.857 38.6171C227.762 46.8115 237.887 38.8066 240.316 28.576C243.368 15.7273 234.743 8.03218 225.706 8.89785Z" fill="#0F051D"/>
</g>
<defs>
<clipPath id="clip0_31_61">
<rect width="38" height="42" fill="white" transform="translate(203)"/>
</clipPath>
</defs>
</svg>
